<svg height="588.1718" viewBox="0 0 724.79698 588.1718" width="724.79698" xmlns="http://www.w3.org/2000/svg"><path d="m930.37281 515.18468c-.79517 1.52892-1.6249 3.0316-2.48108 4.52559-32.83248 57.199-109.20839 92.7223-238.01329 73.921-73.13464-11.18293-104.28079 29.83575-134.4398 71.85037-.51575.72516-1.03108 1.45032-1.55536 2.17548-31.583 44.059-62.85157 88.24038-141.03582 73.554-82.8849-13.105-134.03794-80.40362-141.95341-152.254-.09641-.87367-.18344-1.75608-.26236-2.62975-4.44683-46.58394 9.29594-94.81912 44.3561-131.23356 21.17789-21.99019 51.26694-33.67111 82.32563-33.30419a151.32547 151.32547 0 0 0 27.92237-2.07058c2.03571-.35818 4.01042-.75134 5.93224-1.19692 39.56841-9.04244 57.802-35.92519 68.98472-68.73138.26235-.77758.52428-1.55515.77768-2.34142 25.6772-78.23688 13.80377-188.04811 153.39855-171.894 124.9169 9.20843 216.591 78.47279 261.55836 158.3871.44579.80375.89116 1.60757 1.328 2.41132a243.7444 243.7444 0 0 1 26.14 71.03788c.27985 1.39784.53325 2.79574.76915 4.19359 6.36015 37.11337 2.19274 73.18712-13.75168 103.59947z" fill="#f2f2f2" transform="translate(-237.60151 -155.9141)"/><path d="m917.21533 336.35375a191.29576 191.29576 0 0 1 -30.11507 28.75237c-43.06308 33.02466-97.60626 50.93488-151.41526 54.69159a300.8355 300.8355 0 0 1 -82.579-5.609c-27.608-5.78367-53.94042-15.97061-79.44271-27.87-24.80353-11.57609-48.87289-24.62868-73.51047-36.528.26235-.77758.52428-1.55515.77768-2.34142 26.86527 12.93026 53.18022 27.17977 80.35989 39.49846 25.60723 11.61107 52.11416 21.08159 79.8356 26.14885a299.77989 299.77989 0 0 0 83.85455 3.285c53.661-5.39925 108.2477-25.19653 149.502-60.615a178.51216 178.51216 0 0 0 21.40485-21.82418c.44574.80376.89111 1.60758 1.32794 2.41133z" fill="#fff" transform="translate(-237.60151 -155.9141)"/><path d="m730.77368 156.73592q-.09386 0-.18771.006c-66.21645 4.14847-118.08597 59.41922-118.08597 125.8298 0 66.411 51.86952 121.68213 118.086 125.82938a2.87636 2.87636 0 0 0 2.16829-.77891 2.84615 2.84615 0 0 0 .90645-2.09449v-245.912a2.8864 2.8864 0 0 0 -2.887-2.87981z" fill="#ccc" transform="translate(-237.60151 -155.9141)"/><path d="m832.01475 366.60049a3.71271 3.71271 0 0 1 -2.6183-1.08374l-85.61708-85.61708a3.67264 3.67264 0 0 1 -1.08294-2.61389v-117.67a3.65964 3.65964 0 0 1 1.16556-2.6925 3.71574 3.71574 0 0 1 2.782-1.00112c66.64801 4.17528 118.85601 59.80661 118.85601 126.64956a126.89278 126.89278 0 0 1 -30.67923 82.74128 3.71674 3.71674 0 0 1 -2.66884 1.28508q-.0686.00242-.13718.00241z" fill="#ccc" transform="translate(-237.60151 -155.9141)"/><path d="m746.4081 409.22894a3.72724 3.72724 0 0 1 -2.5445-1.00673 3.66232 3.66232 0 0 1 -1.16717-2.69531v-106.16924a3.69652 3.69652 0 0 1 6.30992-2.61389l74.71149 74.71149a3.70429 3.70429 0 0 1 -.13877 5.36736 127.17445 127.17445 0 0 1 -76.94155 32.3991c-.07621.00482-.15321.00722-.22942.00722z" fill="#27dddd" transform="translate(-237.60151 -155.9141)"/><path d="m944.12453 411.58522c-11.9869 21.25634-28.90993 40.00525-48.2876 54.86628-43.06308 33.02466-97.60628 50.93484-151.4153 54.6916a300.83591 300.83591 0 0 1 -82.579-5.609c-27.608-5.78367-53.94042-15.97061-79.44271-27.87-25.96515-12.11776-51.13555-25.86058-76.98765-38.20545-25.82522-12.33623-52.36756-22.85516-80.17645-29.73966 2.03571-.35818 4.01042-.75134 5.93224-1.19692q2.72593.70764 5.43439 1.46775c54.37682 15.20183 102.36751 45.15986 153.42457 68.30329 25.60723 11.61107 52.11416 21.08159 79.8356 26.14885a299.77954 299.77954 0 0 0 83.85455 3.285c53.661-5.39926 108.2477-25.19653 149.502-60.615a174.25512 174.25512 0 0 0 40.13621-49.72037c.27985 1.39788.53325 2.79578.76915 4.19363z" fill="#fff" transform="translate(-237.60151 -155.9141)"/><path d="m404.27674 598.218c53.57311 14.97467 100.94353 44.27744 151.1619 67.26362-.51575.72516-1.03108 1.45032-1.55536 2.17548-1.27552-.5854-2.54208-1.17074-3.80907-1.76483-25.96515-12.11776-51.13555-25.86058-76.98765-38.20544-26.376-12.59832-53.49462-23.30074-81.94981-30.1765a366.17906 366.17906 0 0 0 -120.2427-8.55318c-.09641-.87367-.18344-1.75608-.26236-2.62975a368.93631 368.93631 0 0 1 133.64505 11.8906z" fill="#fff" transform="translate(-237.60151 -155.9141)"/><path d="m619.60151 682.5154h-381a1 1 0 1 1 0-2h381a1 1 0 0 1 0 2z" fill="#ccc" transform="translate(-237.60151 -155.9141)"/><circle cx="155.11919" cy="367.13559" fill="#a0616a" r="24.56103"/><path d="m247.019 540.442.573 12.247-46.963 8.04-.846-18.074z" fill="#a0616a"/><path d="m496.34511 692.67676 1.30363 27.84073-.49945.02341a18.99138 18.99138 0 0 1 -11.01724-2.66478c-2.998-1.91061-4.72442-4.557-4.86009-7.45118v-.00068l-.79612-17.00411z" fill="#2f2e41" transform="translate(-237.60151 -155.9141)"/><path d="m245.705 560.594 12.26-.001 5.832-47.288-18.094.001z" fill="#a0616a"/><g transform="translate(-237.60151 -155.9141)"><path d="m480.17949 712.50519 24.1438-.001h.001a15.38605 15.38605 0 0 1 15.38648 15.38623v.5l-39.53052.00147z" fill="#2f2e41"/><path d="m367.564 705.05286a10.74269 10.74269 0 0 0 2.50086-16.28168l9.78531-97.35423-23.30523 1.62911-2.29042 95.18376a10.80091 10.80091 0 0 0 13.30948 16.823z" fill="#a0616a"/><path d="m379.73616 608.29227-24.14916-2.94295a4.81687 4.81687 0 0 1 -4.0618-6.05829l6.43061-23.38608a13.37737 13.37737 0 0 1 26.54856 3.31433l.62968 24.16751a4.81687 4.81687 0 0 1 -5.39791 4.90548z" fill="#27dddd"/><path d="m376.358 718.843a16.66215 16.66215 0 0 1 -12.63477-26.002l15.77417-16.376 57.5-51.5 30.74048-25.50879a13.76486 13.76486 0 0 1 22.15283 7.29l16.0601 64.96879a4.49035 4.49035 0 0 1 -2.84424 5.31445l-17.50857 6.30275a4.49957 4.49957 0 0 1 -5.87232-3.07422l-6.66015-24.97558-37.05783 35.42676 11.562 4.25586a4.519 4.519 0 0 1 2.77661 5.44433l-3.73631 13.23731a4.48227 4.48227 0 0 1 -4.2 3.27539z" fill="#2f2e41"/><path d="m374.78748 681.91716-1.521-55.55371-9.59424-24.36621a36.66624 36.66624 0 0 1 26.67065-49.3457q1.1847-.24609 2.36255-.47949a36.66063 36.66063 0 0 1 43.62305 32.37207l4.50854 41.82226-.01831.08008c-7.189 31.97754-27.99243 49.57617-65.47021 55.38379z" fill="#27dddd"/><path d="m397.47809 643.32818a10.52635 10.52635 0 0 1 1.65295-.12266l27.75915-41.09646-5.25714-10.84053 15.3233-10.07227 11.17175 18.28658a8 8 0 0 1 -.91233 9.55759l-37.99226 41.71308a10.4971 10.4971 0 1 1 -11.74542-7.42533z" fill="#a0616a"/><path d="m424.461 601.345a4.49516 4.49516 0 0 1 -2.861-2.41974l-9.60046-20.44343a12.49741 12.49741 0 0 1 20.779-13.89132l15.1683 16.83267a4.5 4.5 0 0 1 -.85312 6.76051l-18.93115 12.57586a4.495 4.495 0 0 1 -3.70157.58545z" fill="#27dddd"/><path d="m718.48465 542.10138h-81.07a4.406 4.406 0 0 1 0-8.812h81.07a4.406 4.406 0 0 1 0 8.812z" fill="#ccc"/><path d="m613.18179 546.50735a9.25255 9.25255 0 1 1 9.25255-9.25255 9.26308 9.26308 0 0 1 -9.25255 9.25255z" fill="#3f3d56"/><path d="m718.48465 568.53724h-81.07a4.406 4.406 0 1 1 0-8.812h81.07a4.406 4.406 0 1 1 0 8.812z" fill="#ccc"/><path d="m613.18179 572.94322a9.25256 9.25256 0 1 1 9.25255-9.25255 9.26308 9.26308 0 0 1 -9.25255 9.25255z" fill="#3f3d56"/><path d="m718.48465 594.97311h-81.07a4.406 4.406 0 0 1 0-8.812h81.07a4.406 4.406 0 0 1 0 8.812z" fill="#ccc"/><path d="m613.18179 599.37908a9.25255 9.25255 0 1 1 9.25255-9.25255 9.26308 9.26308 0 0 1 -9.25255 9.25255z" fill="#3f3d56"/><path d="m741.777 564.01246h33.48543a.88124.88124 0 0 0 .88119-.8812v-207.01108a.88119.88119 0 1 0 -1.76239 0v206.12989h-32.60423a.8812.8812 0 1 0 0 1.76239z" fill="#3f3d56"/><path d="m885.26285 220.82a11.35767 11.35767 0 1 1 10.409-12.233 11.35769 11.35769 0 0 1 -10.409 12.233zm-.1403-1.74169a9.61034 9.61034 0 1 0 -10.351-8.80764 9.61034 9.61034 0 0 0 10.351 8.80768z" fill="#ccc"/></g><circle cx="686.77025" cy="28.77379" fill="#ccc" r="6.98934"/><circle cx="721.12536" cy="6.81515" fill="#ccc" r="3.67143"/><path d="m831.89614 444.37418a11.35767 11.35767 0 1 1 -3.21463-15.7372 11.37027 11.37027 0 0 1 3.21463 15.7372zm-17.494-11.55929a9.61034 9.61034 0 1 0 13.31609-2.72008 9.62122 9.62122 0 0 0 -13.31609 2.72008z" fill="#ccc" transform="translate(-237.60151 -155.9141)"/><circle cx="607.90099" cy="323.24113" fill="#ccc" r="6.98934"/><circle cx="627.39703" cy="359.05118" fill="#ccc" r="3.67143"/><path d="m549.87913 253.62044a11.35767 11.35767 0 1 1 15.22542 5.11666 11.37028 11.37028 0 0 1 -15.22542-5.11666zm18.7773-9.33116a9.61034 9.61034 0 1 0 -4.32948 12.883 9.62122 9.62122 0 0 0 4.32948-12.883z" fill="#ccc" transform="translate(-237.60151 -155.9141)"/><circle cx="275.36504" cy="92.02168" fill="#ccc" r="6.98934"/><circle cx="234.60685" cy="90.91505" fill="#ccc" r="3.67143"/><path d="m418.67622 525.19874-1.02377-2.60927c-2.8244-7.19867-9.5783-12.732-16.80609-13.76922a19.20813 19.20813 0 0 0 -18.63817 8.64159 42.10036 42.10036 0 0 0 -3.93183 9.20259c-.32216.95662-.64688 1.64894-1.27065 1.85828-.70236.25273-1.40116-.18-2.55932-.89806a1.60179 1.60179 0 0 0 -2.43032 1.57838l1.21448 8.66966-1.01631-.9045c-6.61253-5.88565-7.97108-16.9613-3.19423-23.98816l-10.8713 2.23356.4898-.93454a37.127 37.127 0 0 1 21.64431-18.27963l-10.41317-2.29319 1.05251-.64867c9.32523-5.74455 21.62745-5.58275 31.33955.40292a35.54287 35.54287 0 0 1 16.356 28.93535z" fill="#2f2e41" transform="translate(-237.60151 -155.9141)"/></svg>